<svg viewBox="0.00000 0.00000 1000.00000 1000.00000" xmlns="http://www.w3.org/2000/svg"><path d="M 0.00000 0.00000 h 212.12121 v 30.30303 h -212.12121 z M 272.72727 0.00000 h 90.90909 v 30.30303 h -90.90909 z M 393.93939 0.00000 h 90.90909 v 30.30303 h -90.90909 z M 545.45455 0.00000 h 30.30303 v 30.30303 h -30.30303 z M 636.36364 0.00000 h 30.30303 v 30.30303 h -30.30303 z M 787.87879 0.00000 h 212.12121 v 30.30303 h -212.12121 z M 0.00000 30.30303 h 30.30303 v 30.30303 h -30.30303 z M 181.81818 30.30303 h 30.30303 v 30.30303 h -30.30303 z M 333.33333 30.30303 h 60.60606 v 30.30303 h -60.60606 z M 454.54545 30.30303 h 30.30303 v 30.30303 h -30.30303 z M 545.45455 30.30303 h 30.30303 v 30.30303 h -30.30303 z M 666.66667 30.30303 h 30.30303 v 30.30303 h -30.30303 z M 787.87879 30.30303 h 30.30303 v 30.30303 h -30.30303 z M 969.69697 30.30303 h 30.30303 v 30.30303 h -30.30303 z M 0.00000 60.60606 h 30.30303 v 30.30303 h -30.30303 z M 60.60606 60.60606 h 90.90909 v 30.30303 h -90.90909 z M 181.81818 60.60606 h 30.30303 v 30.30303 h -30.30303 z M 272.72727 60.60606 h 90.90909 v 30.30303 h -90.90909 z M 424.24242 60.60606 h 30.30303 v 30.30303 h -30.30303 z M 484.84848 60.60606 h 30.30303 v 30.30303 h -30.30303 z M 545.45455 60.60606 h 30.30303 v 30.30303 h -30.30303 z M 606.06061 60.60606 h 60.60606 v 30.30303 h -60.60606 z M 696.96970 60.60606 h 30.30303 v 30.30303 h -30.30303 z M 787.87879 60.60606 h 30.30303 v 30.30303 h -30.30303 z M 848.48485 60.60606 h 90.90909 v 30.30303 h -90.90909 z M 969.69697 60.60606 h 30.30303 v 30.30303 h -30.30303 z M 0.00000 90.90909 h 30.30303 v 30.30303 h -30.30303 z M 60.60606 90.90909 h 90.90909 v 30.30303 h -90.90909 z M 181.81818 90.90909 h 30.30303 v 30.30303 h -30.30303 z M 242.42424 90.90909 h 30.30303 v 30.30303 h -30.30303 z M 303.03030 90.90909 h 60.60606 v 30.30303 h -60.60606 z M 424.24242 90.90909 h 60.60606 v 30.30303 h -60.60606 z M 515.15152 90.90909 h 30.30303 v 30.30303 h -30.30303 z M 606.06061 90.90909 h 151.51515 v 30.30303 h -151.51515 z M 787.87879 90.90909 h 30.30303 v 30.30303 h -30.30303 z M 848.48485 90.90909 h 90.90909 v 30.30303 h -90.90909 z M 969.69697 90.90909 h 30.30303 v 30.30303 h -30.30303 z M 0.00000 121.21212 h 30.30303 v 30.30303 h -30.30303 z M 60.60606 121.21212 h 90.90909 v 30.30303 h -90.90909 z M 181.81818 121.21212 h 30.30303 v 30.30303 h -30.30303 z M 242.42424 121.21212 h 30.30303 v 30.30303 h -30.30303 z M 303.03030 121.21212 h 30.30303 v 30.30303 h -30.30303 z M 363.63636 121.21212 h 121.21212 v 30.30303 h -121.21212 z M 545.45455 121.21212 h 90.90909 v 30.30303 h -90.90909 z M 666.66667 121.21212 h 60.60606 v 30.30303 h -60.60606 z M 787.87879 121.21212 h 30.30303 v 30.30303 h -30.30303 z M 848.48485 121.21212 h 90.90909 v 30.30303 h -90.90909 z M 969.69697 121.21212 h 30.30303 v 30.30303 h -30.30303 z M 0.00000 151.51515 h 30.30303 v 30.30303 h -30.30303 z M 181.81818 151.51515 h 30.30303 v 30.30303 h -30.30303 z M 272.72727 151.51515 h 60.60606 v 30.30303 h -60.60606 z M 393.93939 151.51515 h 60.60606 v 30.30303 h -60.60606 z M 484.84848 151.51515 h 30.30303 v 30.30303 h -30.30303 z M 636.36364 151.51515 h 60.60606 v 30.30303 h -60.60606 z M 727.27273 151.51515 h 30.30303 v 30.30303 h -30.30303 z M 787.87879 151.51515 h 30.30303 v 30.30303 h -30.30303 z M 969.69697 151.51515 h 30.30303 v 30.30303 h -30.30303 z M 0.00000 181.81818 h 212.12121 v 30.30303 h -212.12121 z M 242.42424 181.81818 h 30.30303 v 30.30303 h -30.30303 z M 303.03030 181.81818 h 30.30303 v 30.30303 h -30.30303 z M 363.63636 181.81818 h 30.30303 v 30.30303 h -30.30303 z M 424.24242 181.81818 h 30.30303 v 30.30303 h -30.30303 z M 484.84848 181.81818 h 30.30303 v 30.30303 h -30.30303 z M 545.45455 181.81818 h 30.30303 v 30.30303 h -30.30303 z M 606.06061 181.81818 h 30.30303 v 30.30303 h -30.30303 z M 666.66667 181.81818 h 30.30303 v 30.30303 h -30.30303 z M 727.27273 181.81818 h 30.30303 v 30.30303 h -30.30303 z M 787.87879 181.81818 h 212.12121 v 30.30303 h -212.12121 z M 272.72727 212.12121 h 30.30303 v 30.30303 h -30.30303 z M 363.63636 212.12121 h 60.60606 v 30.30303 h -60.60606 z M 545.45455 212.12121 h 30.30303 v 30.30303 h -30.30303 z M 666.66667 212.12121 h 90.90909 v 30.30303 h -90.90909 z M 0.00000 242.42424 h 60.60606 v 30.30303 h -60.60606 z M 151.51515 242.42424 h 90.90909 v 30.30303 h -90.90909 z M 272.72727 242.42424 h 60.60606 v 30.30303 h -60.60606 z M 363.63636 242.42424 h 30.30303 v 30.30303 h -30.30303 z M 424.24242 242.42424 h 60.60606 v 30.30303 h -60.60606 z M 515.15152 242.42424 h 90.90909 v 30.30303 h -90.90909 z M 666.66667 242.42424 h 30.30303 v 30.30303 h -30.30303 z M 727.27273 242.42424 h 30.30303 v 30.30303 h -30.30303 z M 848.48485 242.42424 h 60.60606 v 30.30303 h -60.60606 z M 0.00000 272.72727 h 30.30303 v 30.30303 h -30.30303 z M 60.60606 272.72727 h 90.90909 v 30.30303 h -90.90909 z M 212.12121 272.72727 h 30.30303 v 30.30303 h -30.30303 z M 303.03030 272.72727 h 30.30303 v 30.30303 h -30.30303 z M 424.24242 272.72727 h 30.30303 v 30.30303 h -30.30303 z M 575.75758 272.72727 h 30.30303 v 30.30303 h -30.30303 z M 696.96970 272.72727 h 30.30303 v 30.30303 h -30.30303 z M 757.57576 272.72727 h 30.30303 v 30.30303 h -30.30303 z M 818.18182 272.72727 h 60.60606 v 30.30303 h -60.60606 z M 909.09091 272.72727 h 60.60606 v 30.30303 h -60.60606 z M 90.90909 303.03030 h 30.30303 v 30.30303 h -30.30303 z M 181.81818 303.03030 h 30.30303 v 30.30303 h -30.30303 z M 272.72727 303.03030 h 30.30303 v 30.30303 h -30.30303 z M 333.33333 303.03030 h 60.60606 v 30.30303 h -60.60606 z M 545.45455 303.03030 h 30.30303 v 30.30303 h -30.30303 z M 727.27273 303.03030 h 30.30303 v 30.30303 h -30.30303 z M 818.18182 303.03030 h 30.30303 v 30.30303 h -30.30303 z M 878.78788 303.03030 h 30.30303 v 30.30303 h -30.30303 z M 939.39394 303.03030 h 30.30303 v 30.30303 h -30.30303 z M 0.00000 333.33333 h 151.51515 v 30.30303 h -151.51515 z M 242.42424 333.33333 h 30.30303 v 30.30303 h -30.30303 z M 303.03030 333.33333 h 60.60606 v 30.30303 h -60.60606 z M 424.24242 333.33333 h 90.90909 v 30.30303 h -90.90909 z M 606.06061 333.33333 h 30.30303 v 30.30303 h -30.30303 z M 666.66667 333.33333 h 151.51515 v 30.30303 h -151.51515 z M 848.48485 333.33333 h 30.30303 v 30.30303 h -30.30303 z M 909.09091 333.33333 h 30.30303 v 30.30303 h -30.30303 z M 121.21212 363.63636 h 30.30303 v 30.30303 h -30.30303 z M 181.81818 363.63636 h 30.30303 v 30.30303 h -30.30303 z M 242.42424 363.63636 h 90.90909 v 30.30303 h -90.90909 z M 393.93939 363.63636 h 60.60606 v 30.30303 h -60.60606 z M 484.84848 363.63636 h 60.60606 v 30.30303 h -60.60606 z M 575.75758 363.63636 h 60.60606 v 30.30303 h -60.60606 z M 727.27273 363.63636 h 30.30303 v 30.30303 h -30.30303 z M 787.87879 363.63636 h 60.60606 v 30.30303 h -60.60606 z M 939.39394 363.63636 h 60.60606 v 30.30303 h -60.60606 z M 90.90909 393.93939 h 90.90909 v 30.30303 h -90.90909 z M 303.03030 393.93939 h 30.30303 v 30.30303 h -30.30303 z M 363.63636 393.93939 h 90.90909 v 30.30303 h -90.90909 z M 575.75758 393.93939 h 60.60606 v 30.30303 h -60.60606 z M 666.66667 393.93939 h 60.60606 v 30.30303 h -60.60606 z M 787.87879 393.93939 h 60.60606 v 30.30303 h -60.60606 z M 939.39394 393.93939 h 60.60606 v 30.30303 h -60.60606 z M 0.00000 424.24242 h 30.30303 v 30.30303 h -30.30303 z M 121.21212 424.24242 h 151.51515 v 30.30303 h -151.51515 z M 303.03030 424.24242 h 30.30303 v 30.30303 h -30.30303 z M 393.93939 424.24242 h 90.90909 v 30.30303 h -90.90909 z M 515.15152 424.24242 h 60.60606 v 30.30303 h -60.60606 z M 636.36364 424.24242 h 60.60606 v 30.30303 h -60.60606 z M 727.27273 424.24242 h 30.30303 v 30.30303 h -30.30303 z M 787.87879 424.24242 h 30.30303 v 30.30303 h -30.30303 z M 848.48485 424.24242 h 30.30303 v 30.30303 h -30.30303 z M 939.39394 424.24242 h 30.30303 v 30.30303 h -30.30303 z M 30.30303 454.54545 h 60.60606 v 30.30303 h -60.60606 z M 272.72727 454.54545 h 60.60606 v 30.30303 h -60.60606 z M 363.63636 454.54545 h 90.90909 v 30.30303 h -90.90909 z M 484.84848 454.54545 h 30.30303 v 30.30303 h -30.30303 z M 606.06061 454.54545 h 30.30303 v 30.30303 h -30.30303 z M 666.66667 454.54545 h 30.30303 v 30.30303 h -30.30303 z M 818.18182 454.54545 h 60.60606 v 30.30303 h -60.60606 z M 909.09091 454.54545 h 30.30303 v 30.30303 h -30.30303 z M 969.69697 454.54545 h 30.30303 v 30.30303 h -30.30303 z M 30.30303 484.84848 h 90.90909 v 30.30303 h -90.90909 z M 181.81818 484.84848 h 60.60606 v 30.30303 h -60.60606 z M 272.72727 484.84848 h 60.60606 v 30.30303 h -60.60606 z M 363.63636 484.84848 h 30.30303 v 30.30303 h -30.30303 z M 424.24242 484.84848 h 121.21212 v 30.30303 h -121.21212 z M 575.75758 484.84848 h 30.30303 v 30.30303 h -30.30303 z M 666.66667 484.84848 h 30.30303 v 30.30303 h -30.30303 z M 727.27273 484.84848 h 60.60606 v 30.30303 h -60.60606 z M 939.39394 484.84848 h 30.30303 v 30.30303 h -30.30303 z M 0.00000 515.15152 h 30.30303 v 30.30303 h -30.30303 z M 90.90909 515.15152 h 60.60606 v 30.30303 h -60.60606 z M 212.12121 515.15152 h 30.30303 v 30.30303 h -30.30303 z M 272.72727 515.15152 h 30.30303 v 30.30303 h -30.30303 z M 454.54545 515.15152 h 30.30303 v 30.30303 h -30.30303 z M 515.15152 515.15152 h 121.21212 v 30.30303 h -121.21212 z M 696.96970 515.15152 h 30.30303 v 30.30303 h -30.30303 z M 787.87879 515.15152 h 60.60606 v 30.30303 h -60.60606 z M 878.78788 515.15152 h 30.30303 v 30.30303 h -30.30303 z M 939.39394 515.15152 h 60.60606 v 30.30303 h -60.60606 z M 0.00000 545.45455 h 60.60606 v 30.30303 h -60.60606 z M 181.81818 545.45455 h 90.90909 v 30.30303 h -90.90909 z M 363.63636 545.45455 h 121.21212 v 30.30303 h -121.21212 z M 545.45455 545.45455 h 212.12121 v 30.30303 h -212.12121 z M 787.87879 545.45455 h 30.30303 v 30.30303 h -30.30303 z M 969.69697 545.45455 h 30.30303 v 30.30303 h -30.30303 z M 0.00000 575.75758 h 90.90909 v 30.30303 h -90.90909 z M 121.21212 575.75758 h 30.30303 v 30.30303 h -30.30303 z M 242.42424 575.75758 h 121.21212 v 30.30303 h -121.21212 z M 424.24242 575.75758 h 60.60606 v 30.30303 h -60.60606 z M 545.45455 575.75758 h 30.30303 v 30.30303 h -30.30303 z M 606.06061 575.75758 h 30.30303 v 30.30303 h -30.30303 z M 666.66667 575.75758 h 90.90909 v 30.30303 h -90.90909 z M 818.18182 575.75758 h 60.60606 v 30.30303 h -60.60606 z M 909.09091 575.75758 h 30.30303 v 30.30303 h -30.30303 z M 60.60606 606.06061 h 30.30303 v 30.30303 h -30.30303 z M 121.21212 606.06061 h 181.81818 v 30.30303 h -181.81818 z M 333.33333 606.06061 h 30.30303 v 30.30303 h -30.30303 z M 454.54545 606.06061 h 90.90909 v 30.30303 h -90.90909 z M 666.66667 606.06061 h 121.21212 v 30.30303 h -121.21212 z M 818.18182 606.06061 h 60.60606 v 30.30303 h -60.60606 z M 939.39394 606.06061 h 30.30303 v 30.30303 h -30.30303 z M 0.00000 636.36364 h 60.60606 v 30.30303 h -60.60606 z M 212.12121 636.36364 h 30.30303 v 30.30303 h -30.30303 z M 272.72727 636.36364 h 30.30303 v 30.30303 h -30.30303 z M 363.63636 636.36364 h 60.60606 v 30.30303 h -60.60606 z M 454.54545 636.36364 h 30.30303 v 30.30303 h -30.30303 z M 575.75758 636.36364 h 30.30303 v 30.30303 h -30.30303 z M 696.96970 636.36364 h 30.30303 v 30.30303 h -30.30303 z M 848.48485 636.36364 h 60.60606 v 30.30303 h -60.60606 z M 939.39394 636.36364 h 30.30303 v 30.30303 h -30.30303 z M 0.00000 666.66667 h 30.30303 v 30.30303 h -30.30303 z M 90.90909 666.66667 h 60.60606 v 30.30303 h -60.60606 z M 181.81818 666.66667 h 30.30303 v 30.30303 h -30.30303 z M 242.42424 666.66667 h 60.60606 v 30.30303 h -60.60606 z M 393.93939 666.66667 h 90.90909 v 30.30303 h -90.90909 z M 515.15152 666.66667 h 60.60606 v 30.30303 h -60.60606 z M 727.27273 666.66667 h 30.30303 v 30.30303 h -30.30303 z M 787.87879 666.66667 h 30.30303 v 30.30303 h -30.30303 z M 878.78788 666.66667 h 30.30303 v 30.30303 h -30.30303 z M 939.39394 666.66667 h 30.30303 v 30.30303 h -30.30303 z M 0.00000 696.96970 h 30.30303 v 30.30303 h -30.30303 z M 60.60606 696.96970 h 30.30303 v 30.30303 h -30.30303 z M 151.51515 696.96970 h 30.30303 v 30.30303 h -30.30303 z M 212.12121 696.96970 h 90.90909 v 30.30303 h -90.90909 z M 363.63636 696.96970 h 60.60606 v 30.30303 h -60.60606 z M 454.54545 696.96970 h 30.30303 v 30.30303 h -30.30303 z M 606.06061 696.96970 h 30.30303 v 30.30303 h -30.30303 z M 818.18182 696.96970 h 30.30303 v 30.30303 h -30.30303 z M 878.78788 696.96970 h 60.60606 v 30.30303 h -60.60606 z M 0.00000 727.27273 h 60.60606 v 30.30303 h -60.60606 z M 121.21212 727.27273 h 151.51515 v 30.30303 h -151.51515 z M 333.33333 727.27273 h 90.90909 v 30.30303 h -90.90909 z M 484.84848 727.27273 h 30.30303 v 30.30303 h -30.30303 z M 575.75758 727.27273 h 60.60606 v 30.30303 h -60.60606 z M 696.96970 727.27273 h 181.81818 v 30.30303 h -181.81818 z M 939.39394 727.27273 h 30.30303 v 30.30303 h -30.30303 z M 242.42424 757.57576 h 60.60606 v 30.30303 h -60.60606 z M 454.54545 757.57576 h 181.81818 v 30.30303 h -181.81818 z M 666.66667 757.57576 h 30.30303 v 30.30303 h -30.30303 z M 727.27273 757.57576 h 30.30303 v 30.30303 h -30.30303 z M 848.48485 757.57576 h 90.90909 v 30.30303 h -90.90909 z M 969.69697 757.57576 h 30.30303 v 30.30303 h -30.30303 z M 0.00000 787.87879 h 212.12121 v 30.30303 h -212.12121 z M 242.42424 787.87879 h 60.60606 v 30.30303 h -60.60606 z M 333.33333 787.87879 h 60.60606 v 30.30303 h -60.60606 z M 454.54545 787.87879 h 121.21212 v 30.30303 h -121.21212 z M 636.36364 787.87879 h 121.21212 v 30.30303 h -121.21212 z M 787.87879 787.87879 h 30.30303 v 30.30303 h -30.30303 z M 848.48485 787.87879 h 30.30303 v 30.30303 h -30.30303 z M 909.09091 787.87879 h 60.60606 v 30.30303 h -60.60606 z M 0.00000 818.18182 h 30.30303 v 30.30303 h -30.30303 z M 181.81818 818.18182 h 30.30303 v 30.30303 h -30.30303 z M 242.42424 818.18182 h 121.21212 v 30.30303 h -121.21212 z M 454.54545 818.18182 h 60.60606 v 30.30303 h -60.60606 z M 545.45455 818.18182 h 90.90909 v 30.30303 h -90.90909 z M 666.66667 818.18182 h 90.90909 v 30.30303 h -90.90909 z M 848.48485 818.18182 h 30.30303 v 30.30303 h -30.30303 z M 909.09091 818.18182 h 30.30303 v 30.30303 h -30.30303 z M 969.69697 818.18182 h 30.30303 v 30.30303 h -30.30303 z M 0.00000 848.48485 h 30.30303 v 30.30303 h -30.30303 z M 60.60606 848.48485 h 90.90909 v 30.30303 h -90.90909 z M 181.81818 848.48485 h 30.30303 v 30.30303 h -30.30303 z M 272.72727 848.48485 h 30.30303 v 30.30303 h -30.30303 z M 333.33333 848.48485 h 30.30303 v 30.30303 h -30.30303 z M 454.54545 848.48485 h 90.90909 v 30.30303 h -90.90909 z M 727.27273 848.48485 h 151.51515 v 30.30303 h -151.51515 z M 969.69697 848.48485 h 30.30303 v 30.30303 h -30.30303 z M 0.00000 878.78788 h 30.30303 v 30.30303 h -30.30303 z M 60.60606 878.78788 h 90.90909 v 30.30303 h -90.90909 z M 181.81818 878.78788 h 30.30303 v 30.30303 h -30.30303 z M 272.72727 878.78788 h 30.30303 v 30.30303 h -30.30303 z M 363.63636 878.78788 h 151.51515 v 30.30303 h -151.51515 z M 575.75758 878.78788 h 121.21212 v 30.30303 h -121.21212 z M 757.57576 878.78788 h 30.30303 v 30.30303 h -30.30303 z M 848.48485 878.78788 h 60.60606 v 30.30303 h -60.60606 z M 939.39394 878.78788 h 60.60606 v 30.30303 h -60.60606 z M 0.00000 909.09091 h 30.30303 v 30.30303 h -30.30303 z M 60.60606 909.09091 h 90.90909 v 30.30303 h -90.90909 z M 181.81818 909.09091 h 30.30303 v 30.30303 h -30.30303 z M 272.72727 909.09091 h 90.90909 v 30.30303 h -90.90909 z M 454.54545 909.09091 h 60.60606 v 30.30303 h -60.60606 z M 545.45455 909.09091 h 121.21212 v 30.30303 h -121.21212 z M 696.96970 909.09091 h 30.30303 v 30.30303 h -30.30303 z M 757.57576 909.09091 h 30.30303 v 30.30303 h -30.30303 z M 848.48485 909.09091 h 60.60606 v 30.30303 h -60.60606 z M 939.39394 909.09091 h 60.60606 v 30.30303 h -60.60606 z M 0.00000 939.39394 h 30.30303 v 30.30303 h -30.30303 z M 181.81818 939.39394 h 30.30303 v 30.30303 h -30.30303 z M 242.42424 939.39394 h 90.90909 v 30.30303 h -90.90909 z M 363.63636 939.39394 h 60.60606 v 30.30303 h -60.60606 z M 454.54545 939.39394 h 30.30303 v 30.30303 h -30.30303 z M 666.66667 939.39394 h 30.30303 v 30.30303 h -30.30303 z M 757.57576 939.39394 h 30.30303 v 30.30303 h -30.30303 z M 818.18182 939.39394 h 30.30303 v 30.30303 h -30.30303 z M 878.78788 939.39394 h 60.60606 v 30.30303 h -60.60606 z M 0.00000 969.69697 h 212.12121 v 30.30303 h -212.12121 z M 242.42424 969.69697 h 60.60606 v 30.30303 h -60.60606 z M 363.63636 969.69697 h 30.30303 v 30.30303 h -30.30303 z M 424.24242 969.69697 h 30.30303 v 30.30303 h -30.30303 z M 515.15152 969.69697 h 30.30303 v 30.30303 h -30.30303 z M 606.06061 969.69697 h 30.30303 v 30.30303 h -30.30303 z M 696.96970 969.69697 h 60.60606 v 30.30303 h -60.60606 z M 848.48485 969.69697 h 30.30303 v 30.30303 h -30.30303 z M 939.39394 969.69697 h 30.30303 v 30.30303 h -30.30303 z " style="fill: #ffffff"/><text style="fill: #ffffff; font-family: &quot;monospace&quot;; font-size: 200.00000px" x="0.00000" y="0.00000"></text></svg>